<mxfile host="Electron" modified="2024-02-19T13:29:03.488Z" agent="Mozilla/5.0 (Windows NT 10.0; Win64; x64) AppleWebKit/537.36 (KHTML, like Gecko) draw.io/23.1.5 Chrome/120.0.6099.109 Electron/28.1.0 Safari/537.36" etag="0fdluT4v5D08sicTeI0k" version="23.1.5" type="device">
  <diagram name="Page-1" id="G75RWxMUTCu3tAsvaJ98">
    <mxGraphModel dx="428" dy="1644" grid="1" gridSize="10" guides="1" tooltips="1" connect="1" arrows="1" fold="1" page="1" pageScale="1" pageWidth="827" pageHeight="1169" math="0" shadow="0">
      <root>
        <mxCell id="0" />
        <mxCell id="1" parent="0" />
        <mxCell id="jGLjdgkYcnReGWM8OYbs-9" style="edgeStyle=orthogonalEdgeStyle;rounded=0;orthogonalLoop=1;jettySize=auto;html=1;exitX=0.5;exitY=0.5;exitDx=0;exitDy=0;exitPerimeter=0;entryX=0.5;entryY=1;entryDx=0;entryDy=0;endArrow=none;endFill=0;" edge="1" parent="1" source="jGLjdgkYcnReGWM8OYbs-1" target="jGLjdgkYcnReGWM8OYbs-3">
          <mxGeometry relative="1" as="geometry" />
        </mxCell>
        <mxCell id="jGLjdgkYcnReGWM8OYbs-1" value="Joueur" style="shape=umlActor;verticalLabelPosition=bottom;verticalAlign=top;html=1;outlineConnect=0;" vertex="1" parent="1">
          <mxGeometry x="40" y="90" width="30" height="60" as="geometry" />
        </mxCell>
        <mxCell id="jGLjdgkYcnReGWM8OYbs-12" style="edgeStyle=orthogonalEdgeStyle;rounded=0;orthogonalLoop=1;jettySize=auto;html=1;exitX=0;exitY=0;exitDx=0;exitDy=0;entryX=0.5;entryY=1;entryDx=0;entryDy=0;" edge="1" parent="1" source="jGLjdgkYcnReGWM8OYbs-2" target="jGLjdgkYcnReGWM8OYbs-8">
          <mxGeometry relative="1" as="geometry" />
        </mxCell>
        <mxCell id="jGLjdgkYcnReGWM8OYbs-13" style="edgeStyle=orthogonalEdgeStyle;rounded=0;orthogonalLoop=1;jettySize=auto;html=1;exitX=1;exitY=0;exitDx=0;exitDy=0;entryX=0.5;entryY=1;entryDx=0;entryDy=0;" edge="1" parent="1" source="jGLjdgkYcnReGWM8OYbs-2" target="jGLjdgkYcnReGWM8OYbs-11">
          <mxGeometry relative="1" as="geometry">
            <Array as="points">
              <mxPoint x="187" y="-100" />
              <mxPoint x="215" y="-100" />
            </Array>
          </mxGeometry>
        </mxCell>
        <mxCell id="jGLjdgkYcnReGWM8OYbs-2" value="SÃ©lectionner le jeu" style="ellipse;whiteSpace=wrap;html=1;" vertex="1" parent="1">
          <mxGeometry x="110" y="-50" width="90" height="50" as="geometry" />
        </mxCell>
        <mxCell id="jGLjdgkYcnReGWM8OYbs-22" style="edgeStyle=orthogonalEdgeStyle;rounded=0;orthogonalLoop=1;jettySize=auto;html=1;exitX=0.5;exitY=0;exitDx=0;exitDy=0;entryX=0.5;entryY=1;entryDx=0;entryDy=0;" edge="1" parent="1" source="jGLjdgkYcnReGWM8OYbs-3" target="jGLjdgkYcnReGWM8OYbs-2">
          <mxGeometry relative="1" as="geometry" />
        </mxCell>
        <mxCell id="jGLjdgkYcnReGWM8OYbs-3" value="Choisir entre solo ou multi" style="ellipse;whiteSpace=wrap;html=1;" vertex="1" parent="1">
          <mxGeometry x="110" y="50" width="90" height="50" as="geometry" />
        </mxCell>
        <mxCell id="jGLjdgkYcnReGWM8OYbs-8" value="Puissance 4" style="ellipse;whiteSpace=wrap;html=1;" vertex="1" parent="1">
          <mxGeometry x="70" y="-180" width="80" height="30" as="geometry" />
        </mxCell>
        <mxCell id="jGLjdgkYcnReGWM8OYbs-11" value="Nim" style="ellipse;whiteSpace=wrap;html=1;" vertex="1" parent="1">
          <mxGeometry x="190" y="-180" width="50" height="30" as="geometry" />
        </mxCell>
      </root>
    </mxGraphModel>
  </diagram>
</mxfile>
